<?xml version="1.0" standalone="no"?>
<!DOCTYPE svg PUBLIC "-//W3C//DTD SVG 20010904//EN"
 "http://www.w3.org/TR/2001/REC-SVG-20010904/DTD/svg10.dtd">
<svg version="1.0" xmlns="http://www.w3.org/2000/svg"
 width="225.000000pt" height="225.000000pt" viewBox="0 0 225.000000 225.000000"
 preserveAspectRatio="xMidYMid meet">
<metadata>
Created by potrace 1.11, written by Peter Selinger 2001-2013
</metadata>
<g transform="translate(0.000000,225.000000) scale(0.100000,-0.100000)"
fill="#000000" stroke="none">
<path d="M870 2133 c-52 -19 -68 -84 -29 -119 17 -15 40 -20 120 -22 l99 -4 0
-27 c0 -26 -3 -28 -77 -39 -371 -58 -679 -354 -749 -720 -18 -95 -18 -259 0
-354 67 -351 355 -640 708 -712 99 -20 267 -20 366 0 357 73 634 353 707 713
21 103 16 313 -9 406 -37 133 -109 269 -196 367 l-39 45 38 37 37 36 24 -25
c33 -35 85 -31 113 7 29 39 13 69 -97 177 -78 76 -99 91 -125 91 -67 0 -93
-71 -44 -122 l27 -28 -39 -39 -40 -39 -84 49 c-94 54 -201 93 -308 111 -70 12
-73 13 -73 40 l0 28 75 0 c42 0 90 6 109 14 60 25 57 103 -5 125 -33 11 -479
15 -509 4z m423 -359 c40 -8 119 -38 177 -67 90 -44 116 -63 195 -141 74 -74
100 -108 138 -183 64 -124 88 -220 89 -353 0 -164 -39 -297 -126 -429 -57 -85
-171 -194 -256 -244 -134 -78 -323 -117 -470 -97 -181 25 -312 86 -437 204
-166 156 -246 341 -245 566 2 222 85 408 253 564 84 78 215 148 326 175 98 25
257 27 356 5z"/>
<path d="M1079 1531 l-24 -19 0 -250 c0 -232 1 -251 19 -271 18 -20 29 -21
203 -21 170 0 184 1 203 20 29 29 26 74 -6 99 -24 19 -40 21 -150 21 l-122 0
-4 201 c-3 197 -3 201 -27 220 -30 24 -62 24 -92 0z"/>
</g>
</svg>
